{
  "accessors": [
    {
      "bufferView": 2,
      "componentType": 5126,
      "count": 12480,
      "max": [
        -15.0,
        -0.1923000067472458,
        44.83489990234375
      ],
      "min": [
        -44.436100006103516,
        -19.507099151611328,
        16.246400833129883
      ],
      "type": "VEC3"
    },
    {
      "bufferView": 2,
      "byteOffset": 149760,
      "componentType": 5126,
      "count": 12480,
      "max": [
        0.999852180480957,
        0.9990797638893127,
        0.9999344348907471
      ],
      "min": [
        -0.9988332986831665,
        -0.9992761611938477,
        -0.9999912977218628
      ],
      "type": "VEC3"
    },
    {
      "bufferView": 3,
      "componentType": 5126,
      "count": 12480,
      "max": [
        0.9989635944366455,
        0.9999553561210632,
        1.0,
        1.0
      ],
      "min": [
        -0.9998499751091003,
        -0.9986488819122314,
        -0.9999997615814209,
        -1.0
      ],
      "type": "VEC4"
    },
    {
      "bufferView": 1,
      "componentType": 5126,
      "count": 12480,
      "max": [
        0.9900000095367432,
        0.9900000095367432
      ],
      "min": [
        0.009999999776482582,
        0.26969999074935913
      ],
      "type": "VEC2"
    },
    {
      "bufferView": 0,
      "componentType": 5125,
      "count": 19380,
      "type": "SCALAR"
    }
  ],
  "asset": {
    "extras": {
      "author": "Other.Dimension (https://sketchfab.com/Other.Dimension)",
      "license": "CC-BY-4.0 (http://creativecommons.org/licenses/by/4.0/)",
      "source": "https://sketchfab.com/3d-models/stylized-telephone-bf0fdfc5730f4fd0abb6521276b4e3a9",
      "title": "Stylized Telephone"
    },
    "generator": "Sketchfab-12.65.0",
    "version": "2.0"
  },
  "bufferViews": [
    {
      "buffer": 0,
      "byteLength": 77520,
      "name": "floatBufferViews",
      "target": 34963
    },
    {
      "buffer": 0,
      "byteLength": 99840,
      "byteOffset": 77520,
      "byteStride": 8,
      "name": "floatBufferViews",
      "target": 34962
    },
    {
      "buffer": 0,
      "byteLength": 299520,
      "byteOffset": 177360,
      "byteStride": 12,
      "name": "floatBufferViews",
      "target": 34962
    },
    {
      "buffer": 0,
      "byteLength": 199680,
      "byteOffset": 476880,
      "byteStride": 16,
      "name": "floatBufferViews",
      "target": 34962
    }
  ],
  "buffers": [
    {
      "byteLength": 676560,
      "uri": "scene.bin"
    }
  ],
  "images": [
    {
      "uri": "textures/material_0_baseColor.png"
    },
    {
      "uri": "textures/material_0_metallicRoughness.png"
    },
    {
      "uri": "textures/material_0_normal.png"
    }
  ],
  "materials": [
    {
      "doubleSided": true,
      "name": "material_0",
      "normalTexture": {
        "index": 2
      },
      "pbrMetallicRoughness": {
        "baseColorTexture": {
          "index": 0
        },
        "metallicRoughnessTexture": {
          "index": 1
        }
      }
    }
  ],
  "meshes": [
    {
      "name": "Object_0",
      "primitives": [
        {
          "attributes": {
            "NORMAL": 1,
            "POSITION": 0,
            "TANGENT": 2,
            "TEXCOORD_0": 3
          },
          "indices": 4,
          "material": 0,
          "mode": 4
        }
      ]
    }
  ],
  "nodes": [
    {
      "children": [
        1
      ],
      "matrix": [
        1.0,
        0.0,
        0.0,
        0.0,
        0.0,
        -1.0,
        -4.440892098500626e-16,
        0.0,
        0.0,
        4.440892098500626e-16,
        -1.0,
        0.0,
        0.0,
        20.69094657897948,
        40.39034271240235,
        1.0
      ],
      "name": "Sketchfab_model"
    },
    {
      "children": [
        2
      ],
      "name": "NewTelephone.obj"
    },
    {
      "mesh": 0,
      "name": "Object_2"
    }
  ],
  "samplers": [
    {
      "magFilter": 9729,
      "minFilter": 9987,
      "wrapS": 10497,
      "wrapT": 10497
    }
  ],
  "scene": 0,
  "scenes": [
    {
      "name": "Sketchfab_Scene",
      "nodes": [
        0
      ]
    }
  ],
  "textures": [
    {
      "sampler": 0,
      "source": 0
    },
    {
      "sampler": 0,
      "source": 1
    },
    {
      "sampler": 0,
      "source": 2
    }
  ]
}
