{
  "accessors": [
    {
      "bufferView": 1,
      "componentType": 5126,
      "count": 1452,
      "max": [
        0.33772099018096924,
        0.3356670141220093,
        0.34323999285697937
      ],
      "min": [
        -0.33772099018096924,
        -0.3356670141220093,
        -0.34323999285697937
      ],
      "type": "VEC3"
    },
    {
      "bufferView": 1,
      "byteOffset": 17424,
      "componentType": 5126,
      "count": 1452,
      "max": [
        0.9867071509361267,
        0.9996619820594788,
        1.0
      ],
      "min": [
        -0.9867071509361267,
        -0.9996619820594788,
        -1.0
      ],
      "type": "VEC3"
    },
    {
      "bufferView": 0,
      "componentType": 5125,
      "count": 7560,
      "type": "SCALAR"
    },
    {
      "bufferView": 1,
      "byteOffset": 34848,
      "componentType": 5126,
      "count": 2690,
      "max": [
        0.3431529998779297,
        0.34319400787353516,
        0.3287769854068756
      ],
      "min": [
        -0.3431529998779297,
        -0.34319400787353516,
        -0.3287769854068756
      ],
      "type": "VEC3"
    },
    {
      "bufferView": 1,
      "byteOffset": 67128,
      "componentType": 5126,
      "count": 2690,
      "max": [
        0.999995231628418,
        1.0,
        0.9949495792388916
      ],
      "min": [
        -0.999995231628418,
        -1.0,
        -0.9949495792388916
      ],
      "type": "VEC3"
    },
    {
      "bufferView": 0,
      "byteOffset": 30240,
      "componentType": 5125,
      "count": 15120,
      "type": "SCALAR"
    }
  ],
  "asset": {
    "extras": {
      "author": "hendrickkganyago (https://sketchfab.com/hendrickkganyago)",
      "license": "CC-BY-4.0 (http://creativecommons.org/licenses/by/4.0/)",
      "source": "https://sketchfab.com/3d-models/football-ball-1a38a86296524f35904eafb0289aeb75",
      "title": "Football Ball"
    },
    "generator": "Sketchfab-12.68.0",
    "version": "2.0"
  },
  "bufferViews": [
    {
      "buffer": 0,
      "byteLength": 90720,
      "name": "floatBufferViews",
      "target": 34963
    },
    {
      "buffer": 0,
      "byteLength": 99408,
      "byteOffset": 90720,
      "byteStride": 12,
      "name": "floatBufferViews",
      "target": 34962
    }
  ],
  "buffers": [
    {
      "byteLength": 190128,
      "uri": "scene.bin"
    }
  ],
  "materials": [
    {
      "doubleSided": true,
      "name": "Black",
      "pbrMetallicRoughness": {
        "baseColorFactor": [
          0.023279,
          0.023279,
          0.023279,
          1.0
        ],
        "metallicFactor": 0.0,
        "roughnessFactor": 0.8434915419926713
      }
    },
    {
      "doubleSided": true,
      "name": "White",
      "pbrMetallicRoughness": {
        "baseColorFactor": [
          0.64,
          0.64,
          0.64,
          1.0
        ],
        "metallicFactor": 0.0,
        "roughnessFactor": 0.8434915419926713
      }
    }
  ],
  "meshes": [
    {
      "name": "Object_0",
      "primitives": [
        {
          "attributes": {
            "NORMAL": 1,
            "POSITION": 0
          },
          "indices": 2,
          "material": 0,
          "mode": 4
        }
      ]
    },
    {
      "name": "Object_1",
      "primitives": [
        {
          "attributes": {
            "NORMAL": 4,
            "POSITION": 3
          },
          "indices": 5,
          "material": 1,
          "mode": 4
        }
      ]
    }
  ],
  "nodes": [
    {
      "children": [
        1
      ],
      "matrix": [
        1.0,
        0.0,
        0.0,
        0.0,
        0.0,
        2.220446049250313e-16,
        -1.0,
        0.0,
        0.0,
        1.0,
        2.220446049250313e-16,
        0.0,
        0.0,
        0.0,
        0.0,
        1.0
      ],
      "name": "Sketchfab_model"
    },
    {
      "children": [
        2,
        3
      ],
      "name": "football_ball_OBJ.obj.cleaner.materialmerger.gles"
    },
    {
      "mesh": 0,
      "name": "Object_2"
    },
    {
      "mesh": 1,
      "name": "Object_3"
    }
  ],
  "scene": 0,
  "scenes": [
    {
      "name": "Sketchfab_Scene",
      "nodes": [
        0
      ]
    }
  ]
}
