{
  "accessors": [
    {
      "bufferView": 2,
      "componentType": 5126,
      "count": 3115,
      "max": [
        471.79022216796875,
        2349.490234375,
        590.4923706054688
      ],
      "min": [
        -995.0580444335938,
        181.04647827148438,
        -867.8248291015625
      ],
      "type": "VEC3"
    },
    {
      "bufferView": 2,
      "byteOffset": 37380,
      "componentType": 5126,
      "count": 3115,
      "max": [
        0.9994860291481018,
        1.0,
        0.9998319745063782
      ],
      "min": [
        -0.9994858503341675,
        -1.0,
        -0.9991828203201294
      ],
      "type": "VEC3"
    },
    {
      "bufferView": 3,
      "componentType": 5126,
      "count": 3115,
      "max": [
        0.9991828203201294,
        1.0,
        0.999485969543457,
        1.0
      ],
      "min": [
        -0.9980884194374084,
        -1.0,
        -0.9994858503341675,
        -1.0
      ],
      "type": "VEC4"
    },
    {
      "bufferView": 1,
      "componentType": 5126,
      "count": 3115,
      "max": [
        0.9966816902160645,
        0.998454749584198
      ],
      "min": [
        0.001537943840958178,
        0.0015380055410787463
      ],
      "type": "VEC2"
    },
    {
      "bufferView": 0,
      "componentType": 5125,
      "count": 11532,
      "type": "SCALAR"
    }
  ],
  "asset": {
    "extras": {
      "author": "elena.yezhova (https://sketchfab.com/elena.yezhova)",
      "license": "CC-BY-4.0 (http://creativecommons.org/licenses/by/4.0/)",
      "source": "https://sketchfab.com/3d-models/telescope-6752fed82f9142c3b8191146f436ca64",
      "title": "telescope"
    },
    "generator": "Sketchfab-12.67.0",
    "version": "2.0"
  },
  "bufferViews": [
    {
      "buffer": 0,
      "byteLength": 46128,
      "name": "floatBufferViews",
      "target": 34963
    },
    {
      "buffer": 0,
      "byteLength": 24920,
      "byteOffset": 46128,
      "byteStride": 8,
      "name": "floatBufferViews",
      "target": 34962
    },
    {
      "buffer": 0,
      "byteLength": 74760,
      "byteOffset": 71048,
      "byteStride": 12,
      "name": "floatBufferViews",
      "target": 34962
    },
    {
      "buffer": 0,
      "byteLength": 49840,
      "byteOffset": 145808,
      "byteStride": 16,
      "name": "floatBufferViews",
      "target": 34962
    }
  ],
  "buffers": [
    {
      "byteLength": 195648,
      "uri": "scene.bin"
    }
  ],
  "images": [
    {
      "uri": "textures/Telescope_mat_baseColor.png"
    },
    {
      "uri": "textures/Telescope_mat_metallicRoughness.png"
    },
    {
      "uri": "textures/Telescope_mat_normal.png"
    }
  ],
  "materials": [
    {
      "doubleSided": true,
      "name": "Telescope_mat",
      "normalTexture": {
        "index": 2,
        "scale": 0.6549761674576305
      },
      "pbrMetallicRoughness": {
        "baseColorTexture": {
          "index": 0
        },
        "metallicRoughnessTexture": {
          "index": 1
        }
      }
    }
  ],
  "meshes": [
    {
      "name": "Telescope_low_Telescope_mat_0",
      "primitives": [
        {
          "attributes": {
            "NORMAL": 1,
            "POSITION": 0,
            "TANGENT": 2,
            "TEXCOORD_0": 3
          },
          "indices": 4,
          "material": 0,
          "mode": 4
        }
      ]
    }
  ],
  "nodes": [
    {
      "children": [
        1
      ],
      "matrix": [
        1.0,
        0.0,
        0.0,
        0.0,
        0.0,
        2.220446049250313e-16,
        -1.0,
        0.0,
        0.0,
        1.0,
        2.220446049250313e-16,
        0.0,
        0.0,
        0.0,
        0.0,
        1.0
      ],
      "name": "Sketchfab_model"
    },
    {
      "children": [
        2
      ],
      "matrix": [
        1.0,
        0.0,
        0.0,
        0.0,
        0.0,
        0.0,
        1.0,
        0.0,
        0.0,
        -1.0,
        0.0,
        0.0,
        0.0,
        0.0,
        0.0,
        1.0
      ],
      "name": "f1399b72589c4c70ae54fb266b94827b.fbx"
    },
    {
      "children": [
        3
      ],
      "name": "RootNode"
    },
    {
      "children": [
        4
      ],
      "name": "Telescope_low"
    },
    {
      "mesh": 0,
      "name": "Telescope_low_Telescope_mat_0"
    }
  ],
  "samplers": [
    {
      "magFilter": 9729,
      "minFilter": 9987,
      "wrapS": 10497,
      "wrapT": 10497
    }
  ],
  "scene": 0,
  "scenes": [
    {
      "name": "Sketchfab_Scene",
      "nodes": [
        0
      ]
    }
  ],
  "textures": [
    {
      "sampler": 0,
      "source": 0
    },
    {
      "sampler": 0,
      "source": 1
    },
    {
      "sampler": 0,
      "source": 2
    }
  ]
}
