{
  "accessors": [
    {
      "bufferView": 2,
      "componentType": 5126,
      "count": 11261,
      "max": [
        30.444196701049805,
        76.8598861694336,
        165.099609375
      ],
      "min": [
        -29.579845428466797,
        -17.218486785888672,
        -0.021311640739440918
      ],
      "type": "VEC3"
    },
    {
      "bufferView": 2,
      "byteOffset": 135132,
      "componentType": 5126,
      "count": 11261,
      "max": [
        1.0,
        1.0,
        1.0
      ],
      "min": [
        -1.0,
        -1.0,
        -1.0
      ],
      "type": "VEC3"
    },
    {
      "bufferView": 1,
      "componentType": 5126,
      "count": 11261,
      "max": [
        0.999500036239624,
        0.9992635250091553
      ],
      "min": [
        0.0005000000237487257,
        0.0005000000237487257
      ],
      "type": "VEC2"
    },
    {
      "bufferView": 0,
      "componentType": 5125,
      "count": 28968,
      "type": "SCALAR"
    },
    {
      "bufferView": 2,
      "byteOffset": 270264,
      "componentType": 5126,
      "count": 11247,
      "max": [
        30.65233039855957,
        77.2343978881836,
        165.4922332763672
      ],
      "min": [
        -29.838886260986328,
        -17.5169620513916,
        -0.38213253021240234
      ],
      "type": "VEC3"
    },
    {
      "bufferView": 2,
      "byteOffset": 405228,
      "componentType": 5126,
      "count": 11247,
      "max": [
        1.0,
        1.0,
        1.0
      ],
      "min": [
        -1.0,
        -1.0,
        -1.0
      ],
      "type": "VEC3"
    },
    {
      "bufferView": 1,
      "byteOffset": 90088,
      "componentType": 5126,
      "count": 11247,
      "max": [
        0.999500036239624,
        0.9983124136924744
      ],
      "min": [
        0.0005000000237487257,
        0.0005000000237487257
      ],
      "type": "VEC2"
    },
    {
      "bufferView": 0,
      "byteOffset": 115872,
      "componentType": 5125,
      "count": 28968,
      "type": "SCALAR"
    }
  ],
  "asset": {
    "extras": {
      "author": "sieminskaola (https://sketchfab.com/sieminskaola)",
      "license": "CC-BY-4.0 (http://creativecommons.org/licenses/by/4.0/)",
      "source": "https://sketchfab.com/3d-models/telescope-fd6863dd22874707b99b00af620fdfcc",
      "title": "Telescope"
    },
    "generator": "Sketchfab-12.68.0",
    "version": "2.0"
  },
  "bufferViews": [
    {
      "buffer": 0,
      "byteLength": 231744,
      "name": "floatBufferViews",
      "target": 34963
    },
    {
      "buffer": 0,
      "byteLength": 180064,
      "byteOffset": 231744,
      "byteStride": 8,
      "name": "floatBufferViews",
      "target": 34962
    },
    {
      "buffer": 0,
      "byteLength": 540192,
      "byteOffset": 411808,
      "byteStride": 12,
      "name": "floatBufferViews",
      "target": 34962
    }
  ],
  "buffers": [
    {
      "byteLength": 952000,
      "uri": "scene.bin"
    }
  ],
  "extensionsUsed": [
    "KHR_materials_unlit"
  ],
  "images": [
    {
      "uri": "textures/Material_25_baseColor.jpeg"
    }
  ],
  "materials": [
    {
      "doubleSided": true,
      "extensions": {
        "KHR_materials_unlit": {}
      },
      "name": "Material_25",
      "pbrMetallicRoughness": {
        "baseColorTexture": {
          "index": 0
        },
        "metallicFactor": 0.0
      }
    },
    {
      "extensions": {
        "KHR_materials_unlit": {}
      },
      "name": "Material_2",
      "pbrMetallicRoughness": {
        "baseColorFactor": [
          0.0,
          0.0,
          0.0,
          1.0
        ],
        "metallicFactor": 0.0
      }
    }
  ],
  "meshes": [
    {
      "name": "All003_Material #25_0",
      "primitives": [
        {
          "attributes": {
            "NORMAL": 1,
            "POSITION": 0,
            "TEXCOORD_0": 2
          },
          "indices": 3,
          "material": 0,
          "mode": 4
        }
      ]
    },
    {
      "name": "All004_Material #2_0",
      "primitives": [
        {
          "attributes": {
            "NORMAL": 5,
            "POSITION": 4,
            "TEXCOORD_0": 6
          },
          "indices": 7,
          "material": 1,
          "mode": 4
        }
      ]
    }
  ],
  "nodes": [
    {
      "children": [
        1
      ],
      "matrix": [
        0.0008484885911457241,
        0.0,
        0.0,
        0.0,
        0.0,
        1.8840231400434872e-19,
        -0.0008484885911457241,
        0.0,
        0.0,
        0.0008484885911457241,
        1.8840231400434872e-19,
        0.0,
        0.0,
        0.0,
        0.0,
        1.0
      ],
      "name": "Sketchfab_model"
    },
    {
      "children": [
        2
      ],
      "matrix": [
        1.0,
        0.0,
        0.0,
        0.0,
        0.0,
        0.0,
        1.0,
        0.0,
        0.0,
        -1.0,
        0.0,
        0.0,
        0.0,
        0.0,
        0.0,
        1.0
      ],
      "name": "b6f00568cd6e4f88bbbdffdd9b9744b8.fbx"
    },
    {
      "children": [
        3,
        5
      ],
      "name": "RootNode"
    },
    {
      "children": [
        4
      ],
      "matrix": [
        10.0,
        0.0,
        0.0,
        0.0,
        0.0,
        2.220446049250313e-15,
        -10.0,
        0.0,
        0.0,
        10.0,
        2.220446049250313e-15,
        0.0,
        0.0,
        2.980232238769531e-07,
        0.0,
        1.0
      ],
      "name": "All003"
    },
    {
      "mesh": 0,
      "name": "All003_Material #25_0"
    },
    {
      "children": [
        6
      ],
      "matrix": [
        10.0,
        0.0,
        0.0,
        0.0,
        0.0,
        2.220446049250313e-15,
        -10.0,
        0.0,
        0.0,
        10.0,
        2.220446049250313e-15,
        0.0,
        0.0,
        2.980232238769531e-07,
        5.960464477539063e-07,
        1.0
      ],
      "name": "All004"
    },
    {
      "mesh": 1,
      "name": "All004_Material #2_0"
    }
  ],
  "samplers": [
    {
      "magFilter": 9729,
      "minFilter": 9987,
      "wrapS": 10497,
      "wrapT": 10497
    }
  ],
  "scene": 0,
  "scenes": [
    {
      "name": "Sketchfab_Scene",
      "nodes": [
        0
      ]
    }
  ],
  "textures": [
    {
      "sampler": 0,
      "source": 0
    }
  ]
}
