{
  "accessors": [
    {
      "bufferView": 2,
      "componentType": 5126,
      "count": 2194,
      "max": [
        33.91649627685547,
        30.590980529785156,
        15.910223007202148
      ],
      "min": [
        -15.221473693847656,
        -0.5,
        -15.910223007202148
      ],
      "type": "VEC3"
    },
    {
      "bufferView": 2,
      "byteOffset": 26328,
      "componentType": 5126,
      "count": 2194,
      "max": [
        1.0,
        1.0,
        1.0
      ],
      "min": [
        -1.0,
        -1.0,
        -1.0
      ],
      "type": "VEC3"
    },
    {
      "bufferView": 3,
      "componentType": 5126,
      "count": 2194,
      "max": [
        1.0,
        1.0,
        1.0,
        1.0
      ],
      "min": [
        -1.0,
        -1.0,
        -1.0,
        -1.0
      ],
      "type": "VEC4"
    },
    {
      "bufferView": 1,
      "componentType": 5126,
      "count": 2194,
      "max": [
        0.9980239868164063,
        0.9980469942092896
      ],
      "min": [
        0.0019529999699443579,
        0.0019529999699443579
      ],
      "type": "VEC2"
    },
    {
      "bufferView": 0,
      "componentType": 5125,
      "count": 4263,
      "type": "SCALAR"
    },
    {
      "bufferView": 2,
      "byteOffset": 52656,
      "componentType": 5126,
      "count": 11187,
      "max": [
        33.147865295410156,
        30.19791030883789,
        13.970505714416504
      ],
      "min": [
        -15.292228698730469,
        4.2299699783325195,
        -13.86041259765625
      ],
      "type": "VEC3"
    },
    {
      "bufferView": 2,
      "byteOffset": 186900,
      "componentType": 5126,
      "count": 11187,
      "max": [
        0.9895309805870056,
        0.9999178647994995,
        0.9886643290519714
      ],
      "min": [
        -0.9895309805870056,
        -0.6880650520324707,
        -0.9886642098426819
      ],
      "type": "VEC3"
    },
    {
      "bufferView": 3,
      "byteOffset": 35104,
      "componentType": 5126,
      "count": 11187,
      "max": [
        1.0,
        0.9895309805870056,
        1.0,
        1.0
      ],
      "min": [
        -1.0,
        -0.9895306825637817,
        -1.0,
        -1.0
      ],
      "type": "VEC4"
    },
    {
      "bufferView": 1,
      "byteOffset": 17552,
      "componentType": 5126,
      "count": 11187,
      "max": [
        0.9899489879608154,
        0.9980469942092896
      ],
      "min": [
        0.0019529999699443579,
        0.0019529999699443579
      ],
      "type": "VEC2"
    },
    {
      "bufferView": 0,
      "byteOffset": 17052,
      "componentType": 5125,
      "count": 16812,
      "type": "SCALAR"
    },
    {
      "bufferView": 2,
      "byteOffset": 321144,
      "componentType": 5126,
      "count": 176,
      "max": [
        3.8354949951171875,
        36.00552749633789,
        -11.584029197692871
      ],
      "min": [
        -3.8354949951171875,
        -0.5,
        -17.575122833251953
      ],
      "type": "VEC3"
    },
    {
      "bufferView": 2,
      "byteOffset": 323256,
      "componentType": 5126,
      "count": 176,
      "max": [
        0.9986293315887451,
        1.0,
        0.9996033310890198
      ],
      "min": [
        -0.998631477355957,
        -0.9983255863189697,
        -0.9999802112579346
      ],
      "type": "VEC3"
    },
    {
      "bufferView": 3,
      "byteOffset": 214096,
      "componentType": 5126,
      "count": 176,
      "max": [
        0.9995887279510498,
        0.9981104135513306,
        0.9999653100967407,
        1.0
      ],
      "min": [
        -0.9999869465827942,
        -1.0,
        -1.0,
        1.0
      ],
      "type": "VEC4"
    },
    {
      "bufferView": 1,
      "byteOffset": 107048,
      "componentType": 5126,
      "count": 176,
      "max": [
        0.9733210206031799,
        0.9980469942092896
      ],
      "min": [
        0.0019529999699443579,
        0.0019529999699443579
      ],
      "type": "VEC2"
    },
    {
      "bufferView": 0,
      "byteOffset": 84300,
      "componentType": 5125,
      "count": 684,
      "type": "SCALAR"
    },
    {
      "bufferView": 2,
      "byteOffset": 325368,
      "componentType": 5126,
      "count": 104,
      "max": [
        2.0415260791778564,
        7.168163776397705,
        13.024998664855957
      ],
      "min": [
        -2.041524887084961,
        -0.5,
        11.868572235107422
      ],
      "type": "VEC3"
    },
    {
      "bufferView": 2,
      "byteOffset": 326616,
      "componentType": 5126,
      "count": 104,
      "max": [
        1.0,
        1.0,
        1.0
      ],
      "min": [
        -1.0,
        -1.0,
        0.0
      ],
      "type": "VEC3"
    },
    {
      "bufferView": 3,
      "byteOffset": 216912,
      "componentType": 5126,
      "count": 104,
      "max": [
        1.0,
        0.1065136045217514,
        1.0,
        1.0
      ],
      "min": [
        0.0,
        -0.10212650150060654,
        -1.0,
        1.0
      ],
      "type": "VEC4"
    },
    {
      "bufferView": 1,
      "byteOffset": 108456,
      "componentType": 5126,
      "count": 104,
      "max": [
        0.975678026676178,
        0.9883180260658264
      ],
      "min": [
        0.0019529999699443579,
        0.0019529999699443579
      ],
      "type": "VEC2"
    },
    {
      "bufferView": 0,
      "byteOffset": 87036,
      "componentType": 5125,
      "count": 150,
      "type": "SCALAR"
    },
    {
      "bufferView": 2,
      "byteOffset": 327864,
      "componentType": 5126,
      "count": 83,
      "max": [
        33.32221603393555,
        29.034954071044922,
        12.5
      ],
      "min": [
        -12.5,
        1.9999999949504854e-06,
        -12.5
      ],
      "type": "VEC3"
    },
    {
      "bufferView": 2,
      "byteOffset": 328860,
      "componentType": 5126,
      "count": 83,
      "max": [
        1.0,
        0.5956242680549622,
        1.0
      ],
      "min": [
        -1.0,
        0.0,
        -1.0
      ],
      "type": "VEC3"
    },
    {
      "bufferView": 3,
      "byteOffset": 218576,
      "componentType": 5126,
      "count": 83,
      "max": [
        1.0,
        0.8692187070846558,
        1.0,
        1.0
      ],
      "min": [
        -1.0,
        -0.8692187070846558,
        -1.0,
        1.0
      ],
      "type": "VEC4"
    },
    {
      "bufferView": 1,
      "byteOffset": 109288,
      "componentType": 5126,
      "count": 83,
      "max": [
        0.9980469942092896,
        0.9666990041732788
      ],
      "min": [
        0.0019529999699443579,
        0.0019529999699443579
      ],
      "type": "VEC2"
    },
    {
      "bufferView": 0,
      "byteOffset": 87636,
      "componentType": 5125,
      "count": 171,
      "type": "SCALAR"
    }
  ],
  "asset": {
    "extras": {
      "author": "Leontev Artem (https://sketchfab.com/artem17450)",
      "license": "CC-BY-4.0 (http://creativecommons.org/licenses/by/4.0/)",
      "source": "https://sketchfab.com/3d-models/stylized-house-free-b4a97972b78b4b899ef8f9cadc3a828d",
      "title": "Stylized House FREE"
    },
    "generator": "Sketchfab-12.68.0",
    "version": "2.0"
  },
  "bufferViews": [
    {
      "buffer": 0,
      "byteLength": 88320,
      "name": "floatBufferViews",
      "target": 34963
    },
    {
      "buffer": 0,
      "byteLength": 109952,
      "byteOffset": 88320,
      "byteStride": 8,
      "name": "floatBufferViews",
      "target": 34962
    },
    {
      "buffer": 0,
      "byteLength": 329856,
      "byteOffset": 198272,
      "byteStride": 12,
      "name": "floatBufferViews",
      "target": 34962
    },
    {
      "buffer": 0,
      "byteLength": 219904,
      "byteOffset": 528128,
      "byteStride": 16,
      "name": "floatBufferViews",
      "target": 34962
    }
  ],
  "buffers": [
    {
      "byteLength": 748032,
      "uri": "scene.bin"
    }
  ],
  "images": [
    {
      "uri": "textures/Building_baseColor.jpeg"
    },
    {
      "uri": "textures/Building_metallicRoughness.png"
    },
    {
      "uri": "textures/Building_normal.png"
    },
    {
      "uri": "textures/Door_baseColor.jpeg"
    },
    {
      "uri": "textures/Door_metallicRoughness.png"
    },
    {
      "uri": "textures/Door_normal.png"
    },
    {
      "uri": "textures/Pipe_baseColor.jpeg"
    },
    {
      "uri": "textures/Pipe_metallicRoughness.png"
    },
    {
      "uri": "textures/Pipe_normal.png"
    },
    {
      "uri": "textures/Roof_baseColor.jpeg"
    },
    {
      "uri": "textures/Roof_metallicRoughness.png"
    },
    {
      "uri": "textures/Roof_normal.png"
    },
    {
      "uri": "textures/Wood_baseColor.jpeg"
    },
    {
      "uri": "textures/Wood_metallicRoughness.png"
    },
    {
      "uri": "textures/Wood_emissive.jpeg"
    },
    {
      "uri": "textures/Wood_normal.png"
    }
  ],
  "materials": [
    {
      "doubleSided": true,
      "name": "Building",
      "normalTexture": {
        "index": 2
      },
      "occlusionTexture": {
        "index": 1
      },
      "pbrMetallicRoughness": {
        "baseColorTexture": {
          "index": 0
        },
        "metallicRoughnessTexture": {
          "index": 1
        }
      }
    },
    {
      "doubleSided": true,
      "name": "Door",
      "normalTexture": {
        "index": 5
      },
      "occlusionTexture": {
        "index": 4
      },
      "pbrMetallicRoughness": {
        "baseColorTexture": {
          "index": 3
        },
        "metallicRoughnessTexture": {
          "index": 4
        }
      }
    },
    {
      "doubleSided": true,
      "name": "Pipe",
      "normalTexture": {
        "index": 8
      },
      "occlusionTexture": {
        "index": 7
      },
      "pbrMetallicRoughness": {
        "baseColorTexture": {
          "index": 6
        },
        "metallicRoughnessTexture": {
          "index": 7
        }
      }
    },
    {
      "doubleSided": true,
      "name": "Roof",
      "normalTexture": {
        "index": 11
      },
      "occlusionTexture": {
        "index": 10
      },
      "pbrMetallicRoughness": {
        "baseColorTexture": {
          "index": 9
        },
        "metallicRoughnessTexture": {
          "index": 10
        }
      }
    },
    {
      "doubleSided": true,
      "emissiveFactor": [
        1.0,
        1.0,
        1.0
      ],
      "emissiveTexture": {
        "index": 14
      },
      "name": "Wood",
      "normalTexture": {
        "index": 15
      },
      "occlusionTexture": {
        "index": 13
      },
      "pbrMetallicRoughness": {
        "baseColorTexture": {
          "index": 12
        },
        "metallicRoughnessTexture": {
          "index": 13
        }
      }
    }
  ],
  "meshes": [
    {
      "name": "defaultMaterial",
      "primitives": [
        {
          "attributes": {
            "NORMAL": 1,
            "POSITION": 0,
            "TANGENT": 2,
            "TEXCOORD_0": 3
          },
          "indices": 4,
          "material": 4,
          "mode": 4
        }
      ]
    },
    {
      "name": "defaultMaterial",
      "primitives": [
        {
          "attributes": {
            "NORMAL": 6,
            "POSITION": 5,
            "TANGENT": 7,
            "TEXCOORD_0": 8
          },
          "indices": 9,
          "material": 3,
          "mode": 4
        }
      ]
    },
    {
      "name": "defaultMaterial",
      "primitives": [
        {
          "attributes": {
            "NORMAL": 11,
            "POSITION": 10,
            "TANGENT": 12,
            "TEXCOORD_0": 13
          },
          "indices": 14,
          "material": 2,
          "mode": 4
        }
      ]
    },
    {
      "name": "defaultMaterial",
      "primitives": [
        {
          "attributes": {
            "NORMAL": 16,
            "POSITION": 15,
            "TANGENT": 17,
            "TEXCOORD_0": 18
          },
          "indices": 19,
          "material": 1,
          "mode": 4
        }
      ]
    },
    {
      "name": "defaultMaterial",
      "primitives": [
        {
          "attributes": {
            "NORMAL": 21,
            "POSITION": 20,
            "TANGENT": 22,
            "TEXCOORD_0": 23
          },
          "indices": 24,
          "material": 0,
          "mode": 4
        }
      ]
    }
  ],
  "nodes": [
    {
      "children": [
        1
      ],
      "matrix": [
        1.0,
        0.0,
        0.0,
        0.0,
        0.0,
        2.220446049250313e-16,
        -1.0,
        0.0,
        0.0,
        1.0,
        2.220446049250313e-16,
        0.0,
        0.0,
        0.0,
        0.0,
        1.0
      ],
      "name": "Sketchfab_model"
    },
    {
      "children": [
        2,
        4,
        6,
        8,
        10
      ],
      "matrix": [
        1.0,
        0.0,
        0.0,
        0.0,
        0.0,
        -4.371139006309477e-08,
        0.999999999999999,
        0.0,
        0.0,
        -0.999999999999999,
        -4.371139006309477e-08,
        0.0,
        0.0,
        0.0,
        0.0,
        1.0
      ],
      "name": "Collada visual scene group"
    },
    {
      "children": [
        3
      ],
      "name": "Wood"
    },
    {
      "mesh": 0,
      "name": "defaultMaterial"
    },
    {
      "children": [
        5
      ],
      "name": "Roof"
    },
    {
      "mesh": 1,
      "name": "defaultMaterial"
    },
    {
      "children": [
        7
      ],
      "name": "Pipe"
    },
    {
      "mesh": 2,
      "name": "defaultMaterial"
    },
    {
      "children": [
        9
      ],
      "name": "Door"
    },
    {
      "mesh": 3,
      "name": "defaultMaterial"
    },
    {
      "children": [
        11
      ],
      "name": "Building"
    },
    {
      "mesh": 4,
      "name": "defaultMaterial"
    }
  ],
  "samplers": [
    {
      "magFilter": 9729,
      "minFilter": 9987,
      "wrapS": 10497,
      "wrapT": 10497
    }
  ],
  "scene": 0,
  "scenes": [
    {
      "name": "Sketchfab_Scene",
      "nodes": [
        0
      ]
    }
  ],
  "textures": [
    {
      "sampler": 0,
      "source": 0
    },
    {
      "sampler": 0,
      "source": 1
    },
    {
      "sampler": 0,
      "source": 2
    },
    {
      "sampler": 0,
      "source": 3
    },
    {
      "sampler": 0,
      "source": 4
    },
    {
      "sampler": 0,
      "source": 5
    },
    {
      "sampler": 0,
      "source": 6
    },
    {
      "sampler": 0,
      "source": 7
    },
    {
      "sampler": 0,
      "source": 8
    },
    {
      "sampler": 0,
      "source": 9
    },
    {
      "sampler": 0,
      "source": 10
    },
    {
      "sampler": 0,
      "source": 11
    },
    {
      "sampler": 0,
      "source": 12
    },
    {
      "sampler": 0,
      "source": 13
    },
    {
      "sampler": 0,
      "source": 14
    },
    {
      "sampler": 0,
      "source": 15
    }
  ]
}
