{
  "accessors": [
    {
      "bufferView": 2,
      "componentType": 5126,
      "count": 1329,
      "max": [
        1.1865630149841309,
        2.5386905670166016,
        1.1865630149841309
      ],
      "min": [
        -1.1865631341934204,
        0.01390981674194336,
        -1.186563491821289
      ],
      "type": "VEC3"
    },
    {
      "bufferView": 2,
      "byteOffset": 15948,
      "componentType": 5126,
      "count": 1329,
      "max": [
        0.9968194961547852,
        -0.07968884706497192,
        0.996819257736206
      ],
      "min": [
        -0.9968194365501404,
        -1.0,
        -0.9968193769454956
      ],
      "type": "VEC3"
    },
    {
      "bufferView": 1,
      "componentType": 5126,
      "count": 1329,
      "max": [
        0.6095329523086548,
        0.9984873533248901
      ],
      "min": [
        0.040028318762779236,
        0.0015024840831756592
      ],
      "type": "VEC2"
    },
    {
      "bufferView": 1,
      "byteOffset": 10632,
      "componentType": 5126,
      "count": 1329,
      "max": [
        0.6095329523086548,
        0.9984873533248901
      ],
      "min": [
        0.040028318762779236,
        0.0015024840831756592
      ],
      "type": "VEC2"
    },
    {
      "bufferView": 1,
      "byteOffset": 21264,
      "componentType": 5126,
      "count": 1329,
      "max": [
        0.6095329523086548,
        0.9984873533248901
      ],
      "min": [
        0.040028318762779236,
        0.0015024840831756592
      ],
      "type": "VEC2"
    },
    {
      "bufferView": 0,
      "componentType": 5125,
      "count": 7200,
      "type": "SCALAR"
    },
    {
      "bufferView": 2,
      "byteOffset": 31896,
      "componentType": 5126,
      "count": 3441,
      "max": [
        1.2351146936416626,
        2.5934529304504395,
        1.2351149320602417
      ],
      "min": [
        -1.2351149320602417,
        -0.05241900682449341,
        -1.2351151704788208
      ],
      "type": "VEC3"
    },
    {
      "bufferView": 2,
      "byteOffset": 73188,
      "componentType": 5126,
      "count": 3441,
      "max": [
        1.0,
        0.9983528852462769,
        1.0
      ],
      "min": [
        -1.0,
        -0.9999827146530151,
        -1.0
      ],
      "type": "VEC3"
    },
    {
      "bufferView": 1,
      "byteOffset": 31896,
      "componentType": 5126,
      "count": 3441,
      "max": [
        1.0000001192092896,
        1.0
      ],
      "min": [
        0.0,
        -1.564621925354004e-07
      ],
      "type": "VEC2"
    },
    {
      "bufferView": 0,
      "byteOffset": 28800,
      "componentType": 5125,
      "count": 19536,
      "type": "SCALAR"
    }
  ],
  "asset": {
    "extras": {
      "author": "Bryan (https://sketchfab.com/BryanSanchinolo)",
      "license": "CC-BY-4.0 (http://creativecommons.org/licenses/by/4.0/)",
      "source": "https://sketchfab.com/3d-models/office-bin-bb540fc9fcb04a5aa13a5d9b72918f8f",
      "title": "Office Bin"
    },
    "generator": "Sketchfab-12.65.0",
    "version": "2.0"
  },
  "bufferViews": [
    {
      "buffer": 0,
      "byteLength": 106944,
      "name": "floatBufferViews",
      "target": 34963
    },
    {
      "buffer": 0,
      "byteLength": 59424,
      "byteOffset": 106944,
      "byteStride": 8,
      "name": "floatBufferViews",
      "target": 34962
    },
    {
      "buffer": 0,
      "byteLength": 114480,
      "byteOffset": 166368,
      "byteStride": 12,
      "name": "floatBufferViews",
      "target": 34962
    }
  ],
  "buffers": [
    {
      "byteLength": 280848,
      "uri": "scene.bin"
    }
  ],
  "images": [
    {
      "uri": "textures/Team3_Sanchez_Office_Bin_baseColor.png"
    }
  ],
  "materials": [
    {
      "alphaMode": "BLEND",
      "doubleSided": true,
      "name": "Team3_Sanchez_Office_Bin",
      "pbrMetallicRoughness": {
        "baseColorTexture": {
          "index": 0
        },
        "roughnessFactor": 0.13852896341463417
      }
    },
    {
      "doubleSided": true,
      "name": "Team3_Sanchez_Office_Bin_Frame",
      "pbrMetallicRoughness": {
        "baseColorFactor": [
          0.104895,
          0.104895,
          0.104895,
          1.0
        ],
        "roughnessFactor": 0.3702362804878049
      }
    }
  ],
  "meshes": [
    {
      "name": "Office_Bin_Team3_Sanchez_Office_Bin_0",
      "primitives": [
        {
          "attributes": {
            "NORMAL": 1,
            "POSITION": 0,
            "TEXCOORD_0": 2,
            "TEXCOORD_1": 3,
            "TEXCOORD_2": 4
          },
          "indices": 5,
          "material": 0,
          "mode": 4
        }
      ]
    },
    {
      "name": "Office_Bin_Team3_Sanchez_Office_Bin_Frame_0",
      "primitives": [
        {
          "attributes": {
            "NORMAL": 7,
            "POSITION": 6,
            "TEXCOORD_0": 8
          },
          "indices": 9,
          "material": 1,
          "mode": 4
        }
      ]
    }
  ],
  "nodes": [
    {
      "children": [
        1
      ],
      "matrix": [
        1.0,
        0.0,
        0.0,
        0.0,
        0.0,
        2.220446049250313e-16,
        -1.0,
        0.0,
        0.0,
        1.0,
        2.220446049250313e-16,
        0.0,
        0.0,
        0.0,
        0.0,
        1.0
      ],
      "name": "Sketchfab_model"
    },
    {
      "children": [
        2
      ],
      "matrix": [
        1.0,
        0.0,
        0.0,
        0.0,
        0.0,
        0.0,
        1.0,
        0.0,
        0.0,
        -1.0,
        0.0,
        0.0,
        0.0,
        0.0,
        0.0,
        1.0
      ],
      "name": "3ca5c8568e0e415f866073bd5c15d783.fbx"
    },
    {
      "children": [
        3
      ],
      "name": "RootNode"
    },
    {
      "children": [
        4,
        5
      ],
      "name": "Office_Bin"
    },
    {
      "mesh": 0,
      "name": "Office_Bin_Team3_Sanchez_Office_Bin_0"
    },
    {
      "mesh": 1,
      "name": "Office_Bin_Team3_Sanchez_Office_Bin_Frame_0"
    }
  ],
  "samplers": [
    {
      "magFilter": 9729,
      "minFilter": 9987,
      "wrapS": 10497,
      "wrapT": 10497
    }
  ],
  "scene": 0,
  "scenes": [
    {
      "name": "Sketchfab_Scene",
      "nodes": [
        0
      ]
    }
  ],
  "textures": [
    {
      "sampler": 0,
      "source": 0
    }
  ]
}
