{
  "accessors": [
    {
      "bufferView": 2,
      "componentType": 5126,
      "count": 52356,
      "max": [
        2.1367335319519043,
        0.03999999910593033,
        0.42070814967155457
      ],
      "min": [
        -2.1367321014404297,
        -0.03999999910593033,
        -0.4207080602645874
      ],
      "type": "VEC3"
    },
    {
      "bufferView": 2,
      "byteOffset": 628272,
      "componentType": 5126,
      "count": 52356,
      "max": [
        1.0,
        1.0,
        1.0
      ],
      "min": [
        -0.9999990463256836,
        -1.0,
        -0.9999997615814209
      ],
      "type": "VEC3"
    },
    {
      "bufferView": 1,
      "componentType": 5126,
      "count": 52356,
      "max": [
        1.0,
        1.0
      ],
      "min": [
        0.0,
        0.0
      ],
      "type": "VEC2"
    },
    {
      "bufferView": 0,
      "componentType": 5125,
      "count": 231072,
      "type": "SCALAR"
    },
    {
      "bufferView": 2,
      "byteOffset": 1256544,
      "componentType": 5126,
      "count": 52356,
      "max": [
        2.1367335319519043,
        0.03999999910593033,
        0.42070814967155457
      ],
      "min": [
        -2.1367321014404297,
        -0.03999999910593033,
        -0.4207080602645874
      ],
      "type": "VEC3"
    },
    {
      "bufferView": 2,
      "byteOffset": 1884816,
      "componentType": 5126,
      "count": 52356,
      "max": [
        1.0,
        1.0,
        1.0
      ],
      "min": [
        -0.9999990463256836,
        -1.0,
        -0.9999997615814209
      ],
      "type": "VEC3"
    },
    {
      "bufferView": 1,
      "byteOffset": 418848,
      "componentType": 5126,
      "count": 52356,
      "max": [
        1.0,
        1.0
      ],
      "min": [
        0.0,
        0.0
      ],
      "type": "VEC2"
    },
    {
      "bufferView": 0,
      "byteOffset": 924288,
      "componentType": 5125,
      "count": 231072,
      "type": "SCALAR"
    },
    {
      "bufferView": 2,
      "byteOffset": 2513088,
      "componentType": 5126,
      "count": 1024,
      "max": [
        0.7345170974731445,
        -0.0035191902425140142,
        0.5652058124542236
      ],
      "min": [
        -0.7345170974731445,
        -0.003519309451803565,
        -0.4347946345806122
      ],
      "type": "VEC3"
    },
    {
      "bufferView": 2,
      "byteOffset": 2525376,
      "componentType": 5126,
      "count": 1024,
      "max": [
        -6.846876487998088e-08,
        1.0,
        1.86264212942433e-08
      ],
      "min": [
        -8.400390782981049e-08,
        1.0,
        3.86943894894326e-14
      ],
      "type": "VEC3"
    },
    {
      "bufferView": 1,
      "byteOffset": 837696,
      "componentType": 5126,
      "count": 1024,
      "max": [
        1.0000001192092896,
        1.0
      ],
      "min": [
        0.0,
        -1.1920928955078125e-07
      ],
      "type": "VEC2"
    },
    {
      "bufferView": 0,
      "byteOffset": 1848576,
      "componentType": 5125,
      "count": 1536,
      "type": "SCALAR"
    },
    {
      "bufferView": 2,
      "byteOffset": 2537664,
      "componentType": 5126,
      "count": 18,
      "max": [
        1.2061491012573242,
        5.014131546020508,
        1.446636438369751
      ],
      "min": [
        -1.2061488628387451,
        2.1603071689605713,
        -1.446636438369751
      ],
      "type": "VEC3"
    },
    {
      "bufferView": 2,
      "byteOffset": 2537880,
      "componentType": 5126,
      "count": 18,
      "max": [
        0.9240213632583618,
        0.6303134560585022,
        0.923743724822998
      ],
      "min": [
        -0.9240213632583618,
        0.0,
        -0.923743724822998
      ],
      "type": "VEC3"
    },
    {
      "bufferView": 1,
      "byteOffset": 845888,
      "componentType": 5126,
      "count": 18,
      "max": [
        0.989874541759491,
        0.9373615384101868
      ],
      "min": [
        0.013631664216518402,
        0.05889219045639038
      ],
      "type": "VEC2"
    },
    {
      "bufferView": 0,
      "byteOffset": 1854720,
      "componentType": 5125,
      "count": 48,
      "type": "SCALAR"
    },
    {
      "bufferView": 2,
      "byteOffset": 2538096,
      "componentType": 5126,
      "count": 1077,
      "max": [
        1.3415539264678955,
        6.828414440155029,
        1.5465235710144043
      ],
      "min": [
        -1.3415536880493164,
        1.5126326084136963,
        -1.5465235710144043
      ],
      "type": "VEC3"
    },
    {
      "bufferView": 2,
      "byteOffset": 2551020,
      "componentType": 5126,
      "count": 1077,
      "max": [
        0.9999372959136963,
        1.0,
        0.9999996423721313
      ],
      "min": [
        -0.9999369382858276,
        -0.9999092817306519,
        -0.9999996423721313
      ],
      "type": "VEC3"
    },
    {
      "bufferView": 1,
      "byteOffset": 846032,
      "componentType": 5126,
      "count": 1077,
      "max": [
        0.7661665678024292,
        1.0
      ],
      "min": [
        0.0,
        -1.1920928955078125e-07
      ],
      "type": "VEC2"
    },
    {
      "bufferView": 0,
      "byteOffset": 1854912,
      "componentType": 5125,
      "count": 5874,
      "type": "SCALAR"
    },
    {
      "bufferView": 2,
      "byteOffset": 2563944,
      "componentType": 5126,
      "count": 626,
      "max": [
        1.2061491012573242,
        8.437026977539063,
        1.446636438369751
      ],
      "min": [
        -1.2061488628387451,
        5.014131546020508,
        -1.446636438369751
      ],
      "type": "VEC3"
    },
    {
      "bufferView": 2,
      "byteOffset": 2571456,
      "componentType": 5126,
      "count": 626,
      "max": [
        0.9672490358352661,
        0.9269248843193054,
        0.9579111337661743
      ],
      "min": [
        -0.9672490358352661,
        -0.9308890104293823,
        -0.9579111337661743
      ],
      "type": "VEC3"
    },
    {
      "bufferView": 1,
      "byteOffset": 854648,
      "componentType": 5126,
      "count": 626,
      "max": [
        0.7635287046432495,
        1.0
      ],
      "min": [
        0.11759453266859055,
        -1.1920928955078125e-07
      ],
      "type": "VEC2"
    },
    {
      "bufferView": 0,
      "byteOffset": 1878408,
      "componentType": 5125,
      "count": 3540,
      "type": "SCALAR"
    },
    {
      "bufferView": 2,
      "byteOffset": 2578968,
      "componentType": 5126,
      "count": 353,
      "max": [
        1.2723603248596191,
        6.772234916687012,
        1.4781275987625122
      ],
      "min": [
        -1.27236008644104,
        1.5126326084136963,
        -1.4781275987625122
      ],
      "type": "VEC3"
    },
    {
      "bufferView": 2,
      "byteOffset": 2583204,
      "componentType": 5126,
      "count": 353,
      "max": [
        0.9940524697303772,
        0.9999078512191772,
        0.9945991039276123
      ],
      "min": [
        -0.9940524697303772,
        -0.9570171236991882,
        -0.994602620601654
      ],
      "type": "VEC3"
    },
    {
      "bufferView": 1,
      "byteOffset": 859656,
      "componentType": 5126,
      "count": 353,
      "max": [
        0.989874541759491,
        0.9462530612945557
      ],
      "min": [
        0.013631664216518402,
        0.053746938705444336
      ],
      "type": "VEC2"
    },
    {
      "bufferView": 0,
      "byteOffset": 1892568,
      "componentType": 5125,
      "count": 1962,
      "type": "SCALAR"
    }
  ],
  "asset": {
    "extras": {
      "author": "FanoD3c (https://sketchfab.com/fanodev310)",
      "license": "CC-BY-4.0 (http://creativecommons.org/licenses/by/4.0/)",
      "source": "https://sketchfab.com/3d-models/jack-daniel-whisky-1022-f55f99b809924bc99234654cde9683d4",
      "title": "Jack Daniel Whisky 1.0.22"
    },
    "generator": "Sketchfab-12.97.0",
    "version": "2.0"
  },
  "bufferViews": [
    {
      "buffer": 0,
      "byteLength": 1900416,
      "name": "floatBufferViews",
      "target": 34963
    },
    {
      "buffer": 0,
      "byteLength": 862480,
      "byteOffset": 1900416,
      "byteStride": 8,
      "name": "floatBufferViews",
      "target": 34962
    },
    {
      "buffer": 0,
      "byteLength": 2587440,
      "byteOffset": 2762896,
      "byteStride": 12,
      "name": "floatBufferViews",
      "target": 34962
    }
  ],
  "buffers": [
    {
      "byteLength": 5350336,
      "uri": "scene.bin"
    }
  ],
  "extensionsUsed": [
    "KHR_materials_transmission"
  ],
  "images": [
    {
      "uri": "textures/old-Num7-jack-daniels_baseColor.png"
    },
    {
      "uri": "textures/ETIQUETA_baseColor.jpeg"
    }
  ],
  "materials": [
    {
      "alphaMode": "BLEND",
      "doubleSided": true,
      "extensions": {
        "KHR_materials_transmission": {
          "transmissionFactor": 1.0
        }
      },
      "name": "VIDRIO",
      "pbrMetallicRoughness": {
        "baseColorFactor": [
          0.8,
          0.8,
          0.8,
          0.25
        ],
        "metallicFactor": 0.0,
        "roughnessFactor": 0.0
      }
    },
    {
      "alphaMode": "BLEND",
      "doubleSided": true,
      "name": "old-Num7-jack-daniels",
      "pbrMetallicRoughness": {
        "baseColorTexture": {
          "index": 0
        },
        "metallicFactor": 0.0,
        "roughnessFactor": 0.5
      }
    },
    {
      "doubleSided": true,
      "name": "ETIQUETA",
      "pbrMetallicRoughness": {
        "baseColorTexture": {
          "index": 1
        },
        "metallicFactor": 0.0,
        "roughnessFactor": 0.0
      }
    },
    {
      "doubleSided": true,
      "name": "tapa-negra-STICKER",
      "pbrMetallicRoughness": {
        "baseColorFactor": [
          0.0,
          0.0,
          0.0,
          1.0
        ],
        "metallicFactor": 0.427273,
        "roughnessFactor": 0.213636
      }
    },
    {
      "alphaMode": "BLEND",
      "doubleSided": true,
      "extensions": {
        "KHR_materials_transmission": {
          "transmissionFactor": 1.0
        }
      },
      "name": "Material.001",
      "pbrMetallicRoughness": {
        "baseColorFactor": [
          0.8,
          0.00481366,
          0.0,
          0.25
        ],
        "metallicFactor": 0.213636,
        "roughnessFactor": 0.0
      }
    }
  ],
  "meshes": [
    {
      "name": "Object_0",
      "primitives": [
        {
          "attributes": {
            "NORMAL": 1,
            "POSITION": 0,
            "TEXCOORD_0": 2
          },
          "indices": 3,
          "material": 0,
          "mode": 4
        }
      ]
    },
    {
      "name": "Object_1",
      "primitives": [
        {
          "attributes": {
            "NORMAL": 5,
            "POSITION": 4,
            "TEXCOORD_0": 6
          },
          "indices": 7,
          "material": 0,
          "mode": 4
        }
      ]
    },
    {
      "name": "Object_2",
      "primitives": [
        {
          "attributes": {
            "NORMAL": 9,
            "POSITION": 8,
            "TEXCOORD_0": 10
          },
          "indices": 11,
          "material": 1,
          "mode": 4
        }
      ]
    },
    {
      "name": "Object_3",
      "primitives": [
        {
          "attributes": {
            "NORMAL": 13,
            "POSITION": 12,
            "TEXCOORD_0": 14
          },
          "indices": 15,
          "material": 2,
          "mode": 4
        }
      ]
    },
    {
      "name": "Object_4",
      "primitives": [
        {
          "attributes": {
            "NORMAL": 17,
            "POSITION": 16,
            "TEXCOORD_0": 18
          },
          "indices": 19,
          "material": 0,
          "mode": 4
        }
      ]
    },
    {
      "name": "Object_5",
      "primitives": [
        {
          "attributes": {
            "NORMAL": 21,
            "POSITION": 20,
            "TEXCOORD_0": 22
          },
          "indices": 23,
          "material": 3,
          "mode": 4
        }
      ]
    },
    {
      "name": "Object_6",
      "primitives": [
        {
          "attributes": {
            "NORMAL": 25,
            "POSITION": 24,
            "TEXCOORD_0": 26
          },
          "indices": 27,
          "material": 4,
          "mode": 4
        }
      ]
    }
  ],
  "nodes": [
    {
      "children": [
        1
      ],
      "matrix": [
        1.0,
        0.0,
        0.0,
        0.0,
        0.0,
        2.220446049250313e-16,
        -1.0,
        0.0,
        0.0,
        1.0,
        2.220446049250313e-16,
        0.0,
        0.0,
        0.0,
        0.0,
        1.0
      ],
      "name": "Sketchfab_model"
    },
    {
      "children": [
        2
      ],
      "name": "root"
    },
    {
      "children": [
        3,
        5,
        7,
        9
      ],
      "matrix": [
        1.0,
        0.0,
        0.0,
        0.0,
        0.0,
        2.220446049250313e-16,
        1.0,
        0.0,
        0.0,
        -1.0,
        2.220446049250313e-16,
        0.0,
        0.0,
        0.0,
        0.0,
        1.0
      ],
      "name": "GLTF_SceneRootNode"
    },
    {
      "children": [
        4
      ],
      "matrix": [
        0.3802855908870697,
        0.0,
        0.0,
        0.0,
        0.0,
        0.4921225681914348,
        0.28621628789086595,
        0.0,
        0.0,
        -0.28621628789086595,
        0.4921225681914348,
        0.0,
        -0.01619936339557171,
        5.869431972503662,
        1.0073875188827515,
        1.0
      ],
      "name": "Text_0"
    },
    {
      "mesh": 0,
      "name": "Object_4"
    },
    {
      "children": [
        6
      ],
      "matrix": [
        -0.38028559088705094,
        3.114855834104273e-08,
        1.1551346322906653e-07,
        0.0,
        -4.663054963303298e-08,
        0.4921225681914367,
        -0.2862162878908589,
        0.0,
        -1.7292794810631994e-07,
        -0.2862162878908589,
        -0.4921225681914086,
        0.0,
        0.05668473243713379,
        5.869431972503662,
        -1.0069555044174194,
        1.0
      ],
      "name": "Text.001_1"
    },
    {
      "mesh": 1,
      "name": "Object_6"
    },
    {
      "children": [
        8
      ],
      "matrix": [
        0.2768464684486389,
        0.0,
        0.0,
        0.0,
        0.0,
        0.04017343542977888,
        0.4653063904561499,
        0.0,
        -0.0,
        -0.2908737585055175,
        0.025113341220358167,
        0.0,
        -0.0002497062087059021,
        7.055184364318848,
        0.48034176230430603,
        1.0
      ],
      "name": "old-Num7-jack-daniels_2"
    },
    {
      "mesh": 2,
      "name": "Object_8"
    },
    {
      "children": [
        10,
        11,
        12,
        13
      ],
      "matrix": [
        1.0,
        0.0,
        0.0,
        0.0,
        0.0,
        1.0,
        0.0,
        0.0,
        0.0,
        0.0,
        0.8762750625610352,
        0.0,
        0.0,
        0.0,
        0.0,
        1.0
      ],
      "name": "Etiqueta.001_3"
    },
    {
      "mesh": 3,
      "name": "Object_10"
    },
    {
      "mesh": 4,
      "name": "Object_11"
    },
    {
      "mesh": 5,
      "name": "Object_12"
    },
    {
      "mesh": 6,
      "name": "Object_13"
    }
  ],
  "samplers": [
    {
      "magFilter": 9729,
      "minFilter": 9987,
      "wrapS": 33071,
      "wrapT": 33071
    },
    {
      "magFilter": 9729,
      "minFilter": 9987,
      "wrapS": 10497,
      "wrapT": 10497
    }
  ],
  "scene": 0,
  "scenes": [
    {
      "name": "Sketchfab_Scene",
      "nodes": [
        0
      ]
    }
  ],
  "textures": [
    {
      "sampler": 0,
      "source": 0
    },
    {
      "sampler": 1,
      "source": 1
    }
  ]
}
