{
  "accessors": [
    {
      "bufferView": 2,
      "componentType": 5126,
      "count": 2138,
      "max": [
        7.59941291809082,
        7.140204429626465,
        3.5561649799346924
      ],
      "min": [
        1.8325433731079102,
        -7.140204429626465,
        -0.44350767135620117
      ],
      "type": "VEC3"
    },
    {
      "bufferView": 2,
      "byteOffset": 25656,
      "componentType": 5126,
      "count": 2138,
      "max": [
        1.0,
        1.0,
        1.0
      ],
      "min": [
        -1.0,
        -1.0,
        -1.0
      ],
      "type": "VEC3"
    },
    {
      "bufferView": 3,
      "componentType": 5126,
      "count": 2138,
      "max": [
        1.0,
        1.0,
        1.0,
        1.0
      ],
      "min": [
        -1.0,
        -1.0,
        -1.0,
        -1.0
      ],
      "type": "VEC4"
    },
    {
      "bufferView": 1,
      "componentType": 5126,
      "count": 2138,
      "max": [
        0.9972074031829834,
        0.9250245690345764
      ],
      "min": [
        0.002792670391499996,
        0.002790032420307398
      ],
      "type": "VEC2"
    },
    {
      "bufferView": 1,
      "byteOffset": 17104,
      "componentType": 5126,
      "count": 2138,
      "max": [
        0.9972074031829834,
        0.9250245690345764
      ],
      "min": [
        0.002792670391499996,
        0.002790032420307398
      ],
      "type": "VEC2"
    },
    {
      "bufferView": 1,
      "byteOffset": 34208,
      "componentType": 5126,
      "count": 2138,
      "max": [
        0.9972074031829834,
        0.9250245690345764
      ],
      "min": [
        0.002792670391499996,
        0.002790032420307398
      ],
      "type": "VEC2"
    },
    {
      "bufferView": 0,
      "componentType": 5125,
      "count": 5844,
      "type": "SCALAR"
    }
  ],
  "asset": {
    "extras": {
      "author": "Rzyas (https://sketchfab.com/rzyas)",
      "license": "CC-BY-4.0 (http://creativecommons.org/licenses/by/4.0/)",
      "source": "https://sketchfab.com/3d-models/office-table-2a82a9f65e054aae9e7e596db4f5f535",
      "title": "Office table"
    },
    "generator": "Sketchfab-12.68.0",
    "version": "2.0"
  },
  "bufferViews": [
    {
      "buffer": 0,
      "byteLength": 23376,
      "name": "floatBufferViews",
      "target": 34963
    },
    {
      "buffer": 0,
      "byteLength": 51312,
      "byteOffset": 23376,
      "byteStride": 8,
      "name": "floatBufferViews",
      "target": 34962
    },
    {
      "buffer": 0,
      "byteLength": 51312,
      "byteOffset": 74688,
      "byteStride": 12,
      "name": "floatBufferViews",
      "target": 34962
    },
    {
      "buffer": 0,
      "byteLength": 34208,
      "byteOffset": 126000,
      "byteStride": 16,
      "name": "floatBufferViews",
      "target": 34962
    }
  ],
  "buffers": [
    {
      "byteLength": 160208,
      "uri": "scene.bin"
    }
  ],
  "images": [
    {
      "uri": "textures/PRPT_RKJ_kejaKantor_baseColor.jpeg"
    },
    {
      "uri": "textures/PRPT_RKJ_kejaKantor_metallicRoughness.png"
    },
    {
      "uri": "textures/PRPT_RKJ_kejaKantor_normal.png"
    }
  ],
  "materials": [
    {
      "doubleSided": true,
      "name": "PRPT_RKJ_kejaKantor",
      "normalTexture": {
        "index": 2
      },
      "pbrMetallicRoughness": {
        "baseColorTexture": {
          "index": 0
        },
        "metallicRoughnessTexture": {
          "index": 1
        }
      }
    }
  ],
  "meshes": [
    {
      "name": "Cube_PRPT_RKJ_kejaKantor_0",
      "primitives": [
        {
          "attributes": {
            "NORMAL": 1,
            "POSITION": 0,
            "TANGENT": 2,
            "TEXCOORD_0": 3,
            "TEXCOORD_1": 4,
            "TEXCOORD_2": 5
          },
          "indices": 6,
          "material": 0,
          "mode": 4
        }
      ]
    }
  ],
  "nodes": [
    {
      "children": [
        1
      ],
      "matrix": [
        1.0,
        0.0,
        0.0,
        0.0,
        0.0,
        2.220446049250313e-16,
        -1.0,
        0.0,
        0.0,
        1.0,
        2.220446049250313e-16,
        0.0,
        0.0,
        0.0,
        0.0,
        1.0
      ],
      "name": "Sketchfab_model"
    },
    {
      "children": [
        2
      ],
      "matrix": [
        1.0,
        0.0,
        0.0,
        0.0,
        0.0,
        0.0,
        1.0,
        0.0,
        0.0,
        -1.0,
        0.0,
        0.0,
        0.0,
        0.0,
        0.0,
        1.0
      ],
      "name": "eb7ce7bae1ed4a2286b8cafc6780fe0c.fbx"
    },
    {
      "children": [
        3
      ],
      "name": "RootNode"
    },
    {
      "children": [
        4
      ],
      "matrix": [
        100.0,
        0.0,
        0.0,
        0.0,
        0.0,
        -1.629206793918314e-05,
        -99.99999999999868,
        0.0,
        0.0,
        99.99999999999868,
        -1.629206793918314e-05,
        0.0,
        0.0,
        0.0,
        0.0,
        1.0
      ],
      "name": "Cube"
    },
    {
      "mesh": 0,
      "name": "Cube_PRPT_RKJ_kejaKantor_0"
    }
  ],
  "samplers": [
    {
      "magFilter": 9729,
      "minFilter": 9987,
      "wrapS": 10497,
      "wrapT": 10497
    }
  ],
  "scene": 0,
  "scenes": [
    {
      "name": "Sketchfab_Scene",
      "nodes": [
        0
      ]
    }
  ],
  "textures": [
    {
      "sampler": 0,
      "source": 0
    },
    {
      "sampler": 0,
      "source": 1
    },
    {
      "sampler": 0,
      "source": 2
    }
  ]
}
