{
  "accessors": [
    {
      "bufferView": 2,
      "componentType": 5126,
      "count": 1078,
      "max": [
        1.9500000476837158,
        -0.0,
        1.9485690593719482
      ],
      "min": [
        -1.9500000476837158,
        -7.199999809265137,
        -1.9485690593719482
      ],
      "type": "VEC3"
    },
    {
      "bufferView": 2,
      "byteOffset": 12936,
      "componentType": 5126,
      "count": 1078,
      "max": [
        0.9999999403953552,
        0.9999999403953552,
        0.9999999403953552
      ],
      "min": [
        -0.9999999403953552,
        -0.9999999403953552,
        -0.9999999403953552
      ],
      "type": "VEC3"
    },
    {
      "bufferView": 1,
      "componentType": 5126,
      "count": 1078,
      "max": [
        18.288000106811523,
        15.560308456420898
      ],
      "min": [
        -17.148000717163086,
        -15.560308456420898
      ],
      "type": "VEC2"
    },
    {
      "bufferView": 0,
      "componentType": 5125,
      "count": 4128,
      "type": "SCALAR"
    }
  ],
  "asset": {
    "extras": {
      "author": "HRevollo (https://sketchfab.com/RevolloH)",
      "license": "CC-BY-4.0 (http://creativecommons.org/licenses/by/4.0/)",
      "source": "https://sketchfab.com/3d-models/cylinder-2a2efbdad92e454cb0c3673cea1d1280",
      "title": "Cylinder"
    },
    "generator": "Sketchfab-12.68.0",
    "version": "2.0"
  },
  "bufferViews": [
    {
      "buffer": 0,
      "byteLength": 16512,
      "name": "floatBufferViews",
      "target": 34963
    },
    {
      "buffer": 0,
      "byteLength": 8624,
      "byteOffset": 16512,
      "byteStride": 8,
      "name": "floatBufferViews",
      "target": 34962
    },
    {
      "buffer": 0,
      "byteLength": 25872,
      "byteOffset": 25136,
      "byteStride": 12,
      "name": "floatBufferViews",
      "target": 34962
    }
  ],
  "buffers": [
    {
      "byteLength": 51008,
      "uri": "scene.bin"
    }
  ],
  "materials": [
    {
      "doubleSided": true,
      "name": "Steel_-_Satin",
      "pbrMetallicRoughness": {
        "baseColorFactor": [
          0.627451,
          0.627451,
          0.627451,
          1.0
        ],
        "metallicFactor": 0.0
      }
    }
  ],
  "meshes": [
    {
      "name": "Object_0",
      "primitives": [
        {
          "attributes": {
            "NORMAL": 1,
            "POSITION": 0,
            "TEXCOORD_0": 2
          },
          "indices": 3,
          "material": 0,
          "mode": 4
        }
      ]
    }
  ],
  "nodes": [
    {
      "children": [
        1
      ],
      "matrix": [
        1.0,
        0.0,
        0.0,
        0.0,
        0.0,
        2.220446049250313e-16,
        -1.0,
        0.0,
        0.0,
        1.0,
        2.220446049250313e-16,
        0.0,
        0.0,
        0.0,
        0.0,
        1.0
      ],
      "name": "Sketchfab_model"
    },
    {
      "children": [
        2
      ],
      "name": "Cylinder.obj.cleaner.materialmerger.gles"
    },
    {
      "mesh": 0,
      "name": "Object_2"
    }
  ],
  "scene": 0,
  "scenes": [
    {
      "name": "Sketchfab_Scene",
      "nodes": [
        0
      ]
    }
  ]
}
